<svg xmlns="http://www.w3.org/2000/svg" viewBox="0 0 144 144"><defs><style>.cls-1{fill:none;}.cls-2{fill:#221eca;}.cls-3{fill:#ffc005;}</style></defs><g id="object"><path class="cls-1" d="M112,81c0,10.18-2.17,17.63-6.43,22.13s-10.41,6.61-19,6.61H76.66c-8.56,0-14.77-2.17-19-6.61s-6.32-11.68-6.4-21.59h3.33c9.22,0,16.25-2.73,20.92-8.14,4.24-4.9,6.4-11.93,6.6-21.46h4.45c8.55,0,14.75,2.18,18.94,6.68S112,70.75,112,81Z"/><path class="cls-1" d="M64.93,38.26a6.63,6.63,0,0,0-.72-1.06c-1.66-2-4.89-3-9.59-3H44.7c-4.73,0-8,1-9.68,3C33.9,38.54,32,42,32,50.58S33.86,62.43,35,63.7a7.13,7.13,0,0,0,3,1.93,37.69,37.69,0,0,1,8.8-17.21A35,35,0,0,1,64.93,38.26Z"/><path class="cls-2" d="M116.46,48.42C109.37,40.84,99.32,37,86.58,37H80.5a49,49,0,0,1,1.65,13.49c0,.5,0,1,0,1.48h4.45c8.55,0,14.75,2.19,19,6.68S112,70.75,112,81s-2.16,17.63-6.41,22.13-10.41,6.6-19,6.6H76.66c-8.56,0-14.77-2.16-19-6.6s-6.33-11.68-6.4-21.58H44.7a38.47,38.47,0,0,1-8.39-.87c0,.11,0,.21,0,.32,0,14.14,3.54,25,10.51,32.41s17.13,11.29,29.85,11.29h9.92c12.72,0,22.77-3.8,29.85-11.29S126.94,95.16,126.94,81,123.42,55.86,116.46,48.42Z"/><path class="cls-3" d="M82.13,52c-.2,9.53-2.36,16.56-6.6,21.46-4.67,5.41-11.7,8.14-20.92,8.14H51.28c0-.17,0-.35,0-.54a46.58,46.58,0,0,1,2-14.42,21.15,21.15,0,0,1,4.49-8,19.83,19.83,0,0,1,9.39-5.51A35.87,35.87,0,0,1,76.66,52Z"/><path class="cls-3" d="M80.5,37H76.66a52.33,52.33,0,0,0-11.73,1.27A35.07,35.07,0,0,0,46.78,48.42,37.54,37.54,0,0,0,38,65.63,65.39,65.39,0,0,0,36.31,80.7a22.73,22.73,0,0,1-12.69-7.23c-4.42-5.11-6.56-12.6-6.56-22.89s2.15-17.89,6.59-23.08c4.67-5.45,11.75-8.22,21.05-8.22h9.91c9.31,0,16.38,2.77,21,8.25A25.25,25.25,0,0,1,80.5,37Z"/></g></svg>