<svg xmlns="http://www.w3.org/2000/svg" viewBox="0 0 554.19 243.38"><defs><style>.cls-1,.cls-2,.cls-3{fill:#fff;}.cls-2{font-size:52.17px;font-family:Rubik-Medium, Rubik;font-weight:500;}.cls-3{font-size:23.41px;font-family:Rubik-Regular, Rubik;}</style></defs><g id="object"><path class="cls-1" d="M143.3,131.86c0,11.48-2.44,19.87-7.24,24.94s-11.73,7.45-21.38,7.45H103.49c-9.65,0-16.65-2.44-21.39-7.45S75,143.63,74.88,132.47h3.76c10.38,0,18.31-3.08,23.58-9.18,4.77-5.52,7.21-13.45,7.44-24.19h5c9.63,0,16.61,2.47,21.35,7.53S143.3,120.28,143.3,131.86Z"/><path class="cls-1" d="M90.27,83.66a8.29,8.29,0,0,0-.81-1.19c-1.88-2.21-5.51-3.33-10.82-3.33H67.46c-5.32,0-9,1.13-10.9,3.36-1.26,1.48-3.38,5.39-3.38,15s2.06,13.35,3.3,14.78a8.08,8.08,0,0,0,3.41,2.19c1.9-7.86,5.2-14.36,9.92-19.4A39.47,39.47,0,0,1,90.27,83.66Z"/><path class="cls-1" d="M148.36,95.12c-8-8.55-19.33-12.89-33.69-12.89h-6.85a55.25,55.25,0,0,1,1.86,15.2c0,.57,0,1.12,0,1.67h5c9.64,0,16.62,2.47,21.36,7.53s7.26,13.65,7.26,25.23-2.43,19.87-7.23,24.94-11.73,7.45-21.39,7.45H103.49c-9.65,0-16.65-2.44-21.39-7.45S75,143.63,74.88,132.48H67.46a42.92,42.92,0,0,1-9.45-1c0,.12,0,.24,0,.36,0,15.93,4,28.23,11.84,36.53,8,8.45,19.31,12.73,33.65,12.73h11.18c14.35,0,25.67-4.28,33.65-12.73s11.85-20.6,11.85-36.53S156.19,103.5,148.36,95.12Z"/><path class="cls-1" d="M109.66,99.1c-.23,10.74-2.67,18.67-7.44,24.19-5.27,6.1-13.2,9.18-23.58,9.18H74.88c0-.2,0-.4,0-.61a52.38,52.38,0,0,1,2.21-16.26,23.9,23.9,0,0,1,5.06-9,22.3,22.3,0,0,1,10.59-6.2,39.84,39.84,0,0,1,10.76-1.33Z"/><path class="cls-1" d="M107.82,82.23h-4.33a58.75,58.75,0,0,0-13.22,1.43A39.41,39.41,0,0,0,69.81,95.11c-4.72,5-8,11.55-9.91,19.4a73,73,0,0,0-1.89,17,25.71,25.71,0,0,1-14.31-8.15c-5-5.77-7.39-14.2-7.39-25.8s2.43-20.17,7.43-26C49,65.39,57,62.26,67.46,62.26H78.64c10.49,0,18.46,3.13,23.69,9.31A28.35,28.35,0,0,1,107.82,82.23Z"/><text class="cls-2" transform="translate(181.69 138.99)">SCAM SCAN</text><text class="cls-3" transform="translate(242.56 174.52)">SCAM DICTIONARY</text></g></svg>